<svg width="84" height="44" viewBox="0 0 84 44" fill="none" xmlns="http://www.w3.org/2000/svg">
<path d="M24.0016 31.806V28.53H21.9136V31.806H17.9716L22.3096 23.4H20.0596L15.7216 31.806V33.732H21.9136V36H24.0016V33.732H25.4416V31.806H24.0016ZM41.949 36L37.395 23.4H34.911L30.339 36H32.589L33.471 33.462H38.835L39.717 36H41.949ZM36.153 25.83L38.151 31.518H34.155L36.153 25.83ZM53.0059 26.766C51.7639 26.766 50.8459 27.234 50.2519 28.188C49.6939 27.234 48.8479 26.766 47.6959 26.766C46.5619 26.766 45.6979 27.198 45.1219 28.08V27H43.1779V36H45.1219V30.96C45.1219 29.394 45.9499 28.584 47.1199 28.584C48.1999 28.584 48.8119 29.304 48.8119 30.546V36H50.7559V30.96C50.7559 29.376 51.5119 28.584 52.7179 28.584C53.7979 28.584 54.4639 29.304 54.4639 30.546V36H56.4079V30.42C56.4079 28.188 55.0399 26.766 53.0059 26.766ZM63.5825 26.766C62.2145 26.766 61.1705 27.27 60.4325 28.296V27H58.4885V39.6H60.4325V34.722C61.1705 35.73 62.2145 36.234 63.5825 36.234C64.8245 36.234 65.8685 35.784 66.7505 34.866C67.6325 33.948 68.0645 32.832 68.0645 31.5C68.0645 30.186 67.6325 29.07 66.7505 28.152C65.8685 27.234 64.8245 26.766 63.5825 26.766ZM61.2425 33.57C60.7025 33.012 60.4325 32.328 60.4325 31.5C60.4325 30.672 60.7025 29.988 61.2425 29.448C61.7825 28.89 62.4665 28.62 63.2765 28.62C64.0865 28.62 64.7705 28.89 65.3105 29.448C65.8505 29.988 66.1205 30.672 66.1205 31.5C66.1205 32.328 65.8505 33.012 65.3105 33.57C64.7705 34.11 64.0865 34.38 63.2765 34.38C62.4665 34.38 61.7825 34.11 61.2425 33.57Z" fill="#00FF00"/>
<rect x="1" y="1" width="82" height="42" rx="4" stroke="#00FF00" stroke-width="2"/>
<rect x="7" y="5" width="70" height="12" rx="2" fill="#00FF00"/>
</svg>
