<svg width="26" height="26" viewBox="0 0 26 26" fill="none" xmlns="http://www.w3.org/2000/svg">
<path d="M19.4354 0.0141602H6.56455C2.95107 0.0141602 0.0117188 2.95392 0.0117188 6.567V19.4379C0.0117188 23.0514 2.95107 25.9903 6.56455 25.9903H19.4354C23.0489 25.9903 25.9879 23.0514 25.9879 19.4379V6.567C25.9879 2.95392 23.0489 0.0141602 19.4354 0.0141602ZM23.1613 19.4379C23.1613 21.4925 21.4897 23.1641 19.4354 23.1641H6.56455C4.51035 23.1641 2.83872 21.4925 2.83872 19.4379V6.567C2.83872 4.51279 4.51035 2.84156 6.56455 2.84156H19.4354C21.4897 2.84156 23.1613 4.51279 23.1613 6.567V19.4379Z" fill="white"/>
<path d="M19.9047 7.69546C19.0317 7.69546 18.3213 6.98549 18.3213 6.11242C18.3213 5.23976 19.0317 4.52979 19.9047 4.52979C20.7778 4.52979 21.4878 5.23976 21.4878 6.11242C21.4878 6.98549 20.7778 7.69546 19.9047 7.69546Z" fill="white"/>
<path d="M12.9993 6.3125C9.31094 6.3125 6.30957 9.31347 6.30957 13.0023C6.30957 16.691 9.31094 19.6924 12.9993 19.6924C16.6885 19.6924 19.6899 16.691 19.6899 13.0023C19.6899 9.31387 16.6885 6.3125 12.9993 6.3125ZM12.9993 16.8662C10.8702 16.8662 9.13616 15.1326 9.13616 13.0023C9.13616 10.8727 10.8702 9.1399 12.9993 9.1399C15.1296 9.1399 16.8625 10.8727 16.8625 13.0023C16.8625 15.1326 15.1296 16.8662 12.9993 16.8662Z" fill="white"/>
</svg>
