<svg width="30" height="30" viewBox="0 0 30 30" fill="none" xmlns="http://www.w3.org/2000/svg">
<path d="M21.5625 15H17.8125C17.2947 15 16.875 15.4197 16.875 15.9375V23.4375C16.875 23.9553 17.2947 24.375 17.8125 24.375H21.5625C22.598 24.375 23.4375 23.5355 23.4375 22.5V16.875C23.4375 15.8395 22.598 15 21.5625 15ZM21.5625 22.5H18.75V16.875H21.5625V22.5Z" fill="#00FF00"/>
<path d="M30 16.875V15H25.3125C24.7947 15 24.375 15.4197 24.375 15.9375V24.375H26.25V20.625H30V18.75H26.25V16.875H30Z" fill="#00FF00"/>
<path d="M1.875 27.1875V2.81251C1.875 2.29472 2.29471 1.87501 2.8125 1.87501H16.875V5.62501C16.875 6.66054 17.7145 7.50001 18.75 7.50001H22.5V10.3125H24.375V6.56251C24.3765 6.31331 24.2786 6.07378 24.1031 5.89689L18.4781 0.27189C18.3012 0.0964016 18.0617 -0.00139129 17.8125 1.49589e-05H2.8125C1.25918 1.49589e-05 0 1.25925 0 2.81251V27.1875C0 28.7408 1.25918 30 2.8125 30H9.375V28.125H2.8125C2.29476 28.125 1.875 27.7053 1.875 27.1875Z" fill="#00FF00"/>
<path d="M14.0625 15H10.3125C9.79471 15 9.375 15.4197 9.375 15.9375V24.375H11.25V21.5625H14.0625C15.098 21.5625 15.9375 20.723 15.9375 19.6875V16.875C15.9375 15.8395 15.098 15 14.0625 15ZM14.0625 19.6875H11.25V16.875H14.0625V19.6875Z" fill="#00FF00"/>
</svg>
