<svg width="30" height="30" viewBox="0 0 30 30" fill="none" xmlns="http://www.w3.org/2000/svg">
<path d="M29.9998 28.6787C29.9995 27.6198 29.3699 26.6677 28.3955 26.2532L20.922 23.0735V21.2855C21.6121 20.2672 22.0461 19.0621 22.1321 17.7634H23.03C24.8068 17.7634 26.2527 16.3176 26.2527 14.5407V11.9326C26.2527 10.4149 25.1975 9.13978 23.7828 8.79966C23.7187 6.21167 23.1332 4.24487 21.9984 2.79833C20.5416 0.941398 18.1871 0 14.9999 0C11.8127 0 9.45814 0.941398 8.0013 2.79856C6.86626 4.24487 6.28101 6.21167 6.21692 8.79966C4.80196 9.13978 3.74704 10.4149 3.74704 11.9326V14.5407C3.74704 16.3176 5.1929 17.7634 6.96972 17.7634H7.86763C7.95369 19.0621 8.38765 20.2672 9.07774 21.2855V23.0735L1.60423 26.2532C0.629872 26.6677 -1.5257e-05 27.6201 -1.5257e-05 28.6789L-0.000244141 29.1209C-0.000244141 29.3541 0.0922248 29.5777 0.25725 29.7425C0.422046 29.9073 0.645436 30 0.878669 30H29.1211C29.3543 30 29.5779 29.9073 29.7427 29.7425C29.9075 29.5775 30 29.3539 30 29.1209L29.9998 28.6787ZM19.1651 23.6901C19.1658 23.7112 19.215 25.8444 17.955 27.1566C17.2631 27.8769 16.2688 28.2419 14.9999 28.2419C13.7355 28.2419 12.7438 27.8794 12.0523 27.1644C10.7772 25.8453 10.8342 23.7087 10.8346 23.6901C10.8351 23.6798 10.8353 23.6695 10.8353 23.6592C10.8353 23.6556 10.8356 23.6519 10.8356 23.648V23.0928C12.0088 23.9369 13.4474 24.4345 14.9999 24.4345C16.5524 24.4345 17.9909 23.9366 19.1642 23.0928V23.6483C19.1642 23.6517 19.1644 23.6553 19.1644 23.659C19.1644 23.6693 19.1646 23.6796 19.1651 23.6901ZM20.3933 11.4314C20.3921 11.449 20.3905 11.4666 20.3905 11.4847V16.416L18.7213 17.529C18.1903 17.8831 17.5721 18.0704 16.9335 18.0704H15.4469C14.9616 18.0704 14.568 18.4638 14.568 18.9493C14.568 19.4347 14.9616 19.8282 15.4469 19.8282H16.9335C17.9202 19.8282 18.8758 19.5389 19.6966 18.9914L20.217 18.6444C19.6135 20.9614 17.5032 22.6769 14.9999 22.6769C12.0274 22.6769 9.6092 20.2585 9.6092 17.2862V11.4847C9.6092 11.4664 9.6076 11.4488 9.60646 11.4309V10.2286C9.6076 10.2107 9.6092 10.1931 9.6092 10.1748C9.6092 8.66279 9.97519 7.66394 10.6971 7.2064C11.8731 6.4607 13.9298 7.14643 14.6218 7.47305C14.8598 7.58658 15.1379 7.58635 15.3764 7.47374C16.0699 7.14666 18.1264 6.46093 19.3027 7.2064C20.0246 7.66394 20.3905 8.66279 20.3905 10.1748C20.3905 10.1929 20.3921 10.2105 20.3933 10.2281V11.4314ZM24.4949 11.9326V14.5407C24.4949 15.3485 23.8378 16.0056 23.03 16.0056H22.1511V10.4678H23.03C23.8378 10.4678 24.4949 11.1249 24.4949 11.9326ZM14.9999 1.75783C19.6542 1.75783 21.8401 3.88507 22.0188 8.63189C21.773 7.28788 21.1772 6.31078 20.2379 5.71797C18.4194 4.57012 15.9401 5.35496 14.9999 5.72484C14.0596 5.35496 11.5803 4.57012 9.76187 5.71797C8.82253 6.31078 8.22675 7.28788 7.98093 8.63189C8.15968 3.88507 10.3455 1.75783 14.9999 1.75783ZM7.84863 16.0056H6.96972C6.16199 16.0056 5.50486 15.3485 5.50486 14.5407V11.9326C5.50486 11.1249 6.16199 10.4678 6.96972 10.4678H7.84863V16.0056ZM2.29248 27.8707L9.17844 24.941C9.33271 25.8947 9.71586 27.1925 10.6552 28.2422H1.87385C1.96701 28.0794 2.11212 27.9474 2.29248 27.8707ZM19.3445 28.2422C20.2839 27.1925 20.667 25.8947 20.8213 24.941L27.7073 27.8707C27.8876 27.9474 28.0325 28.0794 28.1259 28.2422H19.3445Z" fill="#00FF00"/>
</svg>
