<svg width="30" height="17" viewBox="0 0 30 17" fill="none" xmlns="http://www.w3.org/2000/svg">
<path d="M9.54993 5.50001L3.41406 6.56812L3.54549 7.32311L9.68136 6.255L9.54993 5.50001Z" fill="#00FF00"/>
<path d="M9.0055 7.94413L8.87402 7.18884L2.32491 8.32889L2.45638 9.08418L9.0055 7.94413Z" fill="#00FF00"/>
<path d="M5.99521 10.0376L11.4336 9.09094L11.3022 8.33625L5.86384 9.28294L5.99521 10.0376Z" fill="#00FF00"/>
<path d="M13.0144 9.60935L0.533203 11.7808L0.664553 12.5358L13.1457 10.3643L13.0144 9.60935Z" fill="#00FF00"/>
<path d="M11.7984 15.9786C12.6162 15.8361 13.1983 15.1406 13.2286 14.3437L24.0147 12.4666C24.3126 13.2069 25.0949 13.6648 25.9124 13.5226C26.7295 13.3802 27.3117 12.6846 27.3425 11.8877L28.8371 11.6277L27.7236 5.22995L22.5845 1L6.45344 3.80707L6.63308 4.83802L7.38792 4.70677L7.33983 4.43035L22.3692 1.81502L27.0171 5.64034L27.9504 11.0032L27.2004 11.1338C26.8907 10.4183 26.1226 9.97886 25.3202 10.1186C24.5176 10.2583 23.9436 10.9315 23.894 11.7093L13.0864 13.5901C12.777 12.8745 12.0089 12.4351 11.2063 12.5748C10.404 12.7146 9.82936 13.3877 9.78006 14.1656L9.05546 14.2917L8.84347 13.0732L9.49458 12.9601L9.36303 12.205L4.10999 13.1189L4.24154 13.874L8.08863 13.2045L8.43218 15.1781L9.90043 14.9222C10.1608 15.57 10.7923 16.001 11.4936 16.004H4.85666V16.607H28.3798V16.0043H11.4954C11.5952 16.0046 11.6965 15.9961 11.7984 15.9786ZM25.4306 10.7524C26.0206 10.6499 26.5822 11.0449 26.6844 11.6346C26.7873 12.2243 26.3923 12.7856 25.8023 12.8884C25.2126 12.991 24.651 12.596 24.5485 12.0063C24.4459 11.4166 24.8409 10.8553 25.4306 10.7524ZM10.4345 14.4622C10.332 13.8725 10.7269 13.3112 11.3167 13.2084C11.9064 13.1059 12.4677 13.5008 12.5705 14.0906C12.673 14.6803 12.2784 15.2416 11.6883 15.3444C11.0986 15.4469 10.5373 15.052 10.4345 14.4622Z" fill="#00FF00" stroke="#00FF00" stroke-width="0.5"/>
<path d="M21.9407 6.62474L25.1264 6.0704L24.999 5.33855L21.8134 5.89288L21.259 2.70749L20.5272 2.83481L21.0815 6.0202L21.2088 6.75206L21.9407 6.62474Z" fill="#00FF00"/>
</svg>
