<svg width="85" height="86" viewBox="0 0 85 86" fill="none" xmlns="http://www.w3.org/2000/svg">
<path d="M32.631 73.7752C32.631 76.626 34.9424 78.9374 37.7933 78.9374L47.0627 78.9374C49.9125 78.9342 52.2223 76.6244 52.2255 73.7747L52.7159 40.9736H32.1162L32.631 73.7752ZM43.7967 50.5789L43.7967 57.3009L41.0598 57.3004L41.0598 50.5794L43.7967 50.5789Z" fill="#00FF00"/>
<path d="M26.5941 17.4744C26.0909 17.4744 25.6082 17.6741 25.2524 18.0299C24.8965 18.3858 24.6968 18.8684 24.6973 19.3711V23.3471C24.6995 24.5847 24.9721 25.8065 25.4959 26.9274L32.1839 41.1809L52.7103 41.1221L59.3504 26.8842C59.8655 25.7752 60.1349 24.5674 60.1397 23.3444L60.15 19.3765C60.1532 18.3291 59.3061 17.4765 58.2586 17.4744H26.5941Z" fill="#00FF00"/>
<path d="M47.7955 43.2832L34.927 56.0758H39.6988L36.0316 65.7832L49.2077 52.989H44.4335L47.7955 43.2832Z" fill="white"/>
</svg>
