<svg width="30" height="30" viewBox="0 0 30 30" fill="none" xmlns="http://www.w3.org/2000/svg">
<path d="M20.3227 9.09082C19.9993 9.09082 19.7368 9.35266 19.7368 9.67653C19.7368 10.0002 19.9993 10.2625 20.3227 10.2625C20.6468 10.2625 20.9087 10.0002 20.9087 9.67653C20.9087 9.35266 20.6468 9.09082 20.3227 9.09082Z" fill="#00FF00"/>
<path d="M9.67649 19.7373C9.35239 19.7373 9.09055 19.9998 9.09055 20.3232C9.09055 20.6473 9.35239 20.9092 9.67649 20.9092C9.9999 20.9092 10.2624 20.6473 10.2624 20.3232C10.2624 19.9998 9.9999 19.7373 9.67649 19.7373Z" fill="#00FF00"/>
<path d="M29.271 3.60472C29.0733 3.55871 28.8655 3.61845 28.7226 3.76265L26.2935 6.211H25.129L23.847 4.8828V3.70199L26.2413 1.27195C26.383 1.12822 26.4407 0.921535 26.3938 0.724925C26.3471 0.528544 26.2024 0.370158 26.0111 0.305613C25.4096 0.102824 24.7801 5.55889e-05 24.14 5.55889e-05C22.2315 5.55889e-05 20.4978 0.889949 19.3831 2.44154C18.3399 3.89403 18.0183 5.67404 18.479 7.37761L14.163 11.6936L6.97243 4.4866V3.07211C6.97243 2.86635 6.8644 2.67546 6.68793 2.56971L2.54494 0.0835975C2.31423 -0.0548761 2.0192 -0.0184838 1.82923 0.171717L0.172119 1.82859C-0.0178528 2.0188 -0.054245 2.31382 0.0839997 2.54454L2.56966 6.68753C2.6754 6.864 2.86606 6.9718 3.07183 6.97203L4.48586 6.97249L11.6771 14.1795L7.37756 18.4791C5.67399 18.0186 3.89306 18.3406 2.43988 19.3845C0.889207 20.4985 0 22.2318 0 24.1402C0 24.7802 0.102768 25.4099 0.305558 26.0111C0.370331 26.2036 0.53032 26.349 0.728074 26.3947C0.926057 26.4407 1.13365 26.381 1.2767 26.2368L3.7056 23.7887H4.87656L6.21071 25.1228V26.2938L3.76259 28.7227C3.6184 28.8657 3.55866 29.0733 3.60466 29.2713C3.65044 29.4691 3.79578 29.6291 3.98827 29.6938C4.58954 29.8966 5.2192 29.9994 5.85915 29.9994C7.76757 29.9994 9.50067 29.11 10.6149 27.5593C11.6588 26.1061 11.9808 24.3254 11.5203 22.6218L14.9735 19.1687L15.7645 20.0279L15.4015 20.3907C15.1726 20.6196 15.1726 20.9906 15.4015 21.2195C15.6304 21.4481 16.0011 21.4481 16.2303 21.2195L16.5589 20.8908L23.9807 28.9525C23.9862 28.9584 23.9919 28.9642 23.9976 28.9699C25.3709 30.3432 27.5959 30.3436 28.9698 28.9697C30.3399 27.5989 30.3399 25.3684 28.9698 23.9977C28.9639 23.9917 28.9577 23.986 28.9515 23.9803L20.8772 16.5727L21.2023 16.2477C21.4311 16.0191 21.4311 15.648 21.2023 15.4192C20.9734 15.1903 20.6026 15.1903 20.3735 15.4192L20.013 15.7799L19.1522 14.9898L22.622 11.5199C23.1153 11.6518 23.6243 11.7186 24.14 11.7186C27.3709 11.7186 29.9991 9.09011 29.9991 5.85944C29.9991 5.21925 29.8963 4.58983 29.6936 3.98833C29.6288 3.79584 29.4688 3.6505 29.271 3.60472ZM5.14367 5.97273C5.0338 5.86264 4.8848 5.80656 4.72916 5.80656L3.40393 5.80611L1.32431 2.33397L2.33437 1.32391L5.80056 3.40399V4.72922C5.80056 4.8844 5.86213 5.03317 5.97176 5.14304L13.3344 12.5224L12.5057 13.351L5.14367 5.97273ZM20.0478 17.4022L28.1495 24.8347C29.0545 25.7493 29.0518 27.2302 28.1411 28.1413C27.2283 29.0541 25.7506 29.0569 24.8342 28.1493L17.3882 20.0613L20.0478 17.4022ZM19.1835 16.6091L16.5937 19.1985L15.8027 18.3392L18.3227 15.819L19.1835 16.6091ZM24.14 10.5467C23.6275 10.5467 23.1235 10.4645 22.6424 10.3025C22.4316 10.2318 22.1986 10.2862 22.0411 10.4435C19.1036 13.381 12.7741 19.7102 10.4434 22.0412C10.286 22.1986 10.2313 22.4316 10.3024 22.6427C10.7895 24.089 10.5565 25.6316 9.66294 26.8756C8.7719 28.1159 7.38534 28.8275 5.85915 28.8275C5.68772 28.8275 5.5172 28.8181 5.34829 28.8001L7.20933 26.9534C7.32011 26.8436 7.38259 26.6939 7.38259 26.5376V24.88C7.38259 24.7246 7.32079 24.5756 7.21093 24.4657L5.53345 22.7882C5.42359 22.6784 5.27459 22.6166 5.11918 22.6166H3.46161C3.30529 22.6166 3.1556 22.6791 3.0455 22.7898L1.19911 24.6509C1.1808 24.482 1.17165 24.3115 1.17165 24.14C1.17165 22.6136 1.88301 21.2273 3.12355 20.3362C4.3673 19.4427 5.91019 19.2094 7.35673 19.6967C7.56753 19.7679 7.80053 19.7132 7.958 19.5557C7.99027 19.5237 19.5474 7.9663 19.5557 7.95806C19.7132 7.80059 19.7676 7.56781 19.6967 7.35678C19.2094 5.91048 19.4419 4.36827 20.3348 3.12521C21.2265 1.88376 22.6133 1.17193 24.1397 1.17193C24.3164 1.17193 24.492 1.18177 24.6659 1.201L22.8436 3.0506C22.7355 3.16023 22.6751 3.30786 22.6751 3.46167V5.11923C22.6751 5.27121 22.7339 5.41701 22.8395 5.52618L24.4583 7.20366C24.5687 7.3181 24.7209 7.38265 24.8799 7.38265H26.5375C26.6936 7.38265 26.8433 7.32039 26.9534 7.20938L28.7998 5.34857C28.8181 5.51749 28.8272 5.688 28.8272 5.85944C28.8272 8.44397 26.7245 10.5467 24.14 10.5467Z" fill="#00FF00"/>
<path d="M18.2513 10.9197L10.9191 18.2519C10.6904 18.4806 10.6904 18.8516 10.9191 19.0805C11.148 19.3094 11.519 19.3094 11.7479 19.0805L19.0801 11.7483C19.309 11.5196 19.309 11.1486 19.0801 10.9197C18.8512 10.6908 18.4802 10.6908 18.2513 10.9197Z" fill="#00FF00"/>
<path d="M25.6557 26.4841C25.8846 26.7123 26.2556 26.7123 26.4845 26.4827C26.7129 26.2536 26.7122 25.8826 26.4831 25.6542L21.2016 20.3896C20.9725 20.1612 20.6013 20.1619 20.3731 20.391C20.1444 20.6204 20.1451 20.9911 20.3742 21.2196L25.6557 26.4841Z" fill="#00FF00"/>
</svg>
