<svg width="26" height="22" viewBox="0 0 26 22" fill="none" xmlns="http://www.w3.org/2000/svg">
<path d="M0.0107422 19.1616C2.36931 20.6742 5.17086 21.5566 8.18117 21.5566C17.985 21.5566 23.3458 13.4352 23.3458 6.39134C23.3458 6.16067 23.3406 5.93064 23.3307 5.7019C24.3722 4.95061 25.2756 4.01182 25.9901 2.94288C25.0343 3.36685 24.0072 3.65358 22.9289 3.78244C24.0294 3.12265 24.8745 2.07819 25.2723 0.833667C24.2424 1.44417 23.1019 1.88811 21.888 2.12684C20.9157 1.09108 19.5304 0.443848 17.9972 0.443848C15.0539 0.443848 12.6673 2.83045 12.6673 5.77375C12.6673 6.19127 12.7147 6.59817 12.8055 6.98831C8.37608 6.76601 4.44856 4.64423 1.8197 1.41936C1.36094 2.20673 1.09805 3.122 1.09805 4.09913C1.09805 5.94804 2.03877 7.57948 3.46918 8.53534C2.59515 8.50764 1.77331 8.26762 1.05488 7.86846C1.05456 7.89101 1.05456 7.91324 1.05456 7.93579C1.05456 10.5179 2.89186 12.6723 5.33001 13.162C4.88284 13.2834 4.41184 13.3491 3.92569 13.3491C3.58226 13.3491 3.2485 13.3156 2.92279 13.2531C3.60095 15.3707 5.5697 16.9116 7.90185 16.9545C6.07775 18.3842 3.77943 19.2364 1.28233 19.2364C0.851915 19.2364 0.427624 19.2112 0.0107422 19.1616Z" fill="white"/>
</svg>
