<svg width="40" height="40" viewBox="0 0 40 40" fill="none" xmlns="http://www.w3.org/2000/svg">
<path d="M20 5C11.7287 5 5 11.7287 5 20C5 28.2713 11.7287 35 20 35C28.2713 35 35 28.2713 35 20C35 11.7287 28.2713 5 20 5Z" fill="#00FF00"/>
<path d="M27.6025 16.8211L19.4774 24.946C19.2336 25.1897 18.9137 25.3124 18.5937 25.3124C18.2737 25.3124 17.9537 25.1897 17.71 24.946L13.6476 20.8835C13.1587 20.3949 13.1587 19.6048 13.6476 19.1161C14.1362 18.6272 14.9261 18.6272 15.415 19.1161L18.5937 22.2948L25.8351 15.0537C26.3237 14.5648 27.1136 14.5648 27.6025 15.0537C28.0911 15.5423 28.0911 16.3322 27.6025 16.8211V16.8211Z" fill="#FAFAFA"/>
</svg>
