<svg width="26" height="20" viewBox="0 0 26 20" fill="none" xmlns="http://www.w3.org/2000/svg">
<path d="M3.27137 18.6948C6.4927 19.0537 9.75269 19.056 12.9991 19.0537C16.2466 19.056 19.5072 19.0537 22.7272 18.6948C24.0874 18.5427 25.2176 17.5228 25.5359 16.1413C25.9888 14.1745 25.9901 12.0257 25.9901 9.9999C25.9901 7.97445 25.9943 5.82657 25.541 3.85976C25.2227 2.47702 24.0929 1.45834 22.7321 1.3066C19.5111 0.946419 16.2504 0.945131 13.0046 0.946419C9.75816 0.945131 6.49657 0.946419 3.27492 1.3066C1.91603 1.45834 0.785871 2.47702 0.468861 3.85976C0.0162189 5.82657 0.0107422 7.97445 0.0107422 10.0002C0.0107422 12.026 0.0107421 14.1745 0.464028 16.1413C0.780716 17.5228 1.91087 18.5427 3.27137 18.6948ZM9.64831 5.44191C12.4009 6.87812 15.1361 8.30434 17.907 9.75022C15.1441 11.1826 12.4086 12.6017 9.64831 14.0331V5.44191Z" fill="white"/>
</svg>
